<svg width="137" height="173" viewBox="0 0 137 173" fill="none" xmlns="http://www.w3.org/2000/svg">
<path d="M0.254684 148L21.0896 1.90625H50.4744L72.6375 148H51.8855L48.3992 121.936H24.825L21.6707 148H0.254684ZM26.9832 104.089H46.075L36.2801 30.71H35.948L26.9832 104.089Z" fill="white"/>
<path d="M122.495 172.238L100.581 148.415L114.693 140.778L133.452 162.692L122.495 172.238ZM104.732 149.66C97.1502 149.66 90.9523 148.055 86.1379 144.846C81.3788 141.636 77.8648 136.877 75.5959 130.568C73.327 124.26 72.1926 116.457 72.1926 107.16V40.3389C72.1926 31.9274 73.2993 24.7334 75.5129 18.7568C77.7264 12.7803 81.2404 8.18717 86.0549 4.97754C90.8693 1.7679 97.1779 0.163086 104.981 0.163086C110.847 0.163086 115.799 1.07617 119.839 2.90234C123.879 4.72852 127.144 7.38477 129.634 10.8711C132.124 14.3021 133.923 18.5078 135.029 23.4883C136.192 28.4134 136.773 34.0303 136.773 40.3389V107.16C136.773 116.457 135.666 124.26 133.452 130.568C131.294 136.877 127.863 141.636 123.159 144.846C118.456 148.055 112.313 149.66 104.732 149.66ZM104.732 130.402C107.499 130.402 109.574 129.572 110.957 127.912C112.341 126.252 113.254 123.734 113.696 120.358C114.195 116.927 114.444 112.611 114.444 107.409V39.3428C114.444 32.9788 113.835 28.0814 112.617 24.6504C111.455 21.1641 108.91 19.4209 104.981 19.4209C100.941 19.4209 98.2017 21.1087 96.7629 24.4844C95.3241 27.8047 94.6047 32.7298 94.6047 39.2598V107.409C94.6047 112.722 94.826 117.093 95.2687 120.524C95.7668 123.9 96.7352 126.39 98.174 127.995C99.6682 129.6 101.854 130.402 104.732 130.402Z" fill="#596FB7"/>
</svg>
